HIERARCHY
ROOT Hips
{
  OFFSET 5.84602e-005 68.8428 3.50346
  CHANNELS 6 Xposition Yposition Zposition Zrotation Xrotation Yrotation
  JOINT Spine
  {
    OFFSET 0 8.597 -4.6522
    CHANNELS 3 Zrotation Xrotation Yrotation
    JOINT Spine1
    {
      OFFSET 0 7.8454 0.4098
      CHANNELS 3 Zrotation Xrotation Yrotation
      JOINT Spine2
      {
        OFFSET 0 9.7078 -2.1609
        CHANNELS 3 Zrotation Xrotation Yrotation
        JOINT Neck
        {
          OFFSET 0 21.8761 -0.4549
          CHANNELS 3 Zrotation Xrotation Yrotation
          JOINT Head
          {
            OFFSET 0 12.3537 3.3602
            CHANNELS 3 Zrotation Xrotation Yrotation
            End Site
            {
              OFFSET 0.0001 18.9506 0.5657
            }
          }
        }
        JOINT LeftShoulder
        {
          OFFSET 2.2086 21.1115 7.2329
          CHANNELS 3 Zrotation Xrotation Yrotation
          JOINT LeftArm
          {
            OFFSET 13.1193 3.0282 -4.8998
            CHANNELS 3 Zrotation Xrotation Yrotation
            JOINT LeftForeArm
            {
              OFFSET 27.4081 -0.0973053 -0.2375
              CHANNELS 3 Zrotation Xrotation Yrotation
              JOINT LeftHand
              {
                OFFSET 22.8641 0.0662994 -0.1369
                CHANNELS 3 Zrotation Xrotation Yrotation
                JOINT LeftHandIndex1
                {
                  OFFSET 8.8614 0.775009 2.4612
                  CHANNELS 3 Zrotation Xrotation Yrotation
                  JOINT LeftHandIndex2
                  {
                    OFFSET 3.3146 -0.808304 0.5841
                    CHANNELS 3 Zrotation Xrotation Yrotation
                    JOINT LeftHandIndex3
                    {
                      OFFSET 2.2628 -0.552002 0.3989
                      CHANNELS 3 Zrotation Xrotation Yrotation
                      End Site
                      {
                        OFFSET 1.6102 -0.4807 0.2612
                      }
                    }
                  }
                }
                JOINT LeftHandMiddle1
                {
                  OFFSET 8.9937 0.895004 0.2143
                  CHANNELS 3 Zrotation Xrotation Yrotation
                  JOINT LeftHandMiddle2
                  {
                    OFFSET 4.0984 0.0113983 -0.0242
                    CHANNELS 3 Zrotation Xrotation Yrotation
                    JOINT LeftHandMiddle3
                    {
                      OFFSET 2.2716 0.00689697 -0.0138001
                      CHANNELS 3 Zrotation Xrotation Yrotation
                      End Site
                      {
                        OFFSET 2.0404 -0.1441 0.0027
                      }
                    }
                  }
                }
                JOINT LeftHandRing1
                {
                  OFFSET 8.5234 0.597198 -2.0164
                  CHANNELS 3 Zrotation Xrotation Yrotation
                  JOINT LeftHandRing2
                  {
                    OFFSET 3.7188 -0.188293 -0.2328
                    CHANNELS 3 Zrotation Xrotation Yrotation
                    JOINT LeftHandRing3
                    {
                      OFFSET 2.1191 -0.106598 -0.1332
                      CHANNELS 3 Zrotation Xrotation Yrotation
                      End Site
                      {
                        OFFSET 1.8737 -0.2304 -0.0886
                      }
                    }
                  }
                }
                JOINT LeftHandPinky1
                {
                  OFFSET 7.9094 -0.601089 -3.4825
                  CHANNELS 3 Zrotation Xrotation Yrotation
                  JOINT LeftHandPinky2
                  {
                    OFFSET 2.2874 -0.477005 -0.6314
                    CHANNELS 3 Zrotation Xrotation Yrotation
                    JOINT LeftHandPinky3
                    {
                      OFFSET 1.6774 -0.349396 -0.4633
                      CHANNELS 3 Zrotation Xrotation Yrotation
                      End Site
                      {
                        OFFSET 1.4888 -0.4091 -0.3416
                      }
                    }
                  }
                }
                JOINT LeftHandThumb1
                {
                  OFFSET 1.833 -1.3875 1.3896
                  CHANNELS 3 Zrotation Xrotation Yrotation
                  JOINT LeftHandThumb2
                  {
                    OFFSET 3.4129 -1.121 2.5732
                    CHANNELS 3 Zrotation Xrotation Yrotation
                    JOINT LeftHandThumb3
                    {
                      OFFSET 2.2474 -0.804199 1.6192
                      CHANNELS 3 Zrotation Xrotation Yrotation
                      End Site
                      {
                        OFFSET 1.6527 -0.5689 1.1317
                      }
                    }
                  }
                }
              }
            }
          }
        }
        JOINT RightShoulder
        {
          OFFSET -2.2086 21.1115 7.2329
          CHANNELS 3 Zrotation Xrotation Yrotation
          JOINT RightArm
          {
            OFFSET -13.1216 3.0287 -4.9007
            CHANNELS 3 Zrotation Xrotation Yrotation
            JOINT RightForeArm
            {
              OFFSET -27.4081 -0.0973053 -0.2375
              CHANNELS 3 Zrotation Xrotation Yrotation
              JOINT RightHand
              {
                OFFSET -22.8641 0.0664063 -0.1369
                CHANNELS 3 Zrotation Xrotation Yrotation
                JOINT RightHandIndex1
                {
                  OFFSET -8.8614 0.774994 2.4612
                  CHANNELS 3 Zrotation Xrotation Yrotation
                  JOINT RightHandIndex2
                  {
                    OFFSET -3.3146 -0.808304 0.5841
                    CHANNELS 3 Zrotation Xrotation Yrotation
                    JOINT RightHandIndex3
                    {
                      OFFSET -2.2628 -0.552002 0.3989
                      CHANNELS 3 Zrotation Xrotation Yrotation
                      End Site
                      {
                        OFFSET -1.6102 -0.4807 0.2612
                      }
                    }
                  }
                }
                JOINT RightHandMiddle1
                {
                  OFFSET -8.9937 0.894989 0.2143
                  CHANNELS 3 Zrotation Xrotation Yrotation
                  JOINT RightHandMiddle2
                  {
                    OFFSET -4.0984 0.0113983 -0.0242
                    CHANNELS 3 Zrotation Xrotation Yrotation
                    JOINT RightHandMiddle3
                    {
                      OFFSET -2.2716 0.00691223 -0.0138001
                      CHANNELS 3 Zrotation Xrotation Yrotation
                      End Site
                      {
                        OFFSET -2.0404 -0.1441 0.0027
                      }
                    }
                  }
                }
                JOINT RightHandRing1
                {
                  OFFSET -8.5234 0.597198 -2.0164
                  CHANNELS 3 Zrotation Xrotation Yrotation
                  JOINT RightHandRing2
                  {
                    OFFSET -3.7188 -0.188309 -0.2328
                    CHANNELS 3 Zrotation Xrotation Yrotation
                    JOINT RightHandRing3
                    {
                      OFFSET -2.1191 -0.106598 -0.1332
                      CHANNELS 3 Zrotation Xrotation Yrotation
                      End Site
                      {
                        OFFSET -1.8737 -0.2304 -0.0886
                      }
                    }
                  }
                }
                JOINT RightHandPinky1
                {
                  OFFSET -7.9094 -0.601105 -3.4825
                  CHANNELS 3 Zrotation Xrotation Yrotation
                  JOINT RightHandPinky2
                  {
                    OFFSET -2.2874 -0.477005 -0.6314
                    CHANNELS 3 Zrotation Xrotation Yrotation
                    JOINT RightHandPinky3
                    {
                      OFFSET -1.6774 -0.349396 -0.4633
                      CHANNELS 3 Zrotation Xrotation Yrotation
                      End Site
                      {
                        OFFSET -1.4888 -0.4091 -0.3416
                      }
                    }
                  }
                }
                JOINT RightHandThumb1
                {
                  OFFSET -1.833 -1.38751 1.3896
                  CHANNELS 3 Zrotation Xrotation Yrotation
                  JOINT RightHandThumb2
                  {
                    OFFSET -3.41299 -1.12099 2.5732
                    CHANNELS 3 Zrotation Xrotation Yrotation
                    JOINT RightHandThumb3
                    {
                      OFFSET -2.24741 -0.804108 1.6192
                      CHANNELS 3 Zrotation Xrotation Yrotation
                      End Site
                      {
                        OFFSET -1.6527 -0.5689 1.1317
                      }
                    }
                  }
                }
              }
            }
          }
        }
      }
    }
  }
  JOINT RightUpLeg
  {
    OFFSET -9.1966 3.8861 -0.7581
    CHANNELS 3 Zrotation Xrotation Yrotation
    JOINT RightLeg
    {
      OFFSET -0.7359 -41.0265 0
      CHANNELS 3 Zrotation Xrotation Yrotation
      JOINT RightFoot
      {
        OFFSET 0 -40.2855 0
        CHANNELS 3 Zrotation Xrotation Yrotation
        JOINT RightToeBase
        {
          OFFSET 0 -5.6122 11.7359
          CHANNELS 3 Zrotation Xrotation Yrotation
          End Site
          {
            OFFSET 0 0 7.8731
          }
        }
      }
    }
  }
  JOINT LeftUpLeg
  {
    OFFSET 9.1965 3.8864 -0.7581
    CHANNELS 3 Zrotation Xrotation Yrotation
    JOINT LeftLeg
    {
      OFFSET 0.7359 -41.0268 0
      CHANNELS 3 Zrotation Xrotation Yrotation
      JOINT LeftFoot
      {
        OFFSET 0 -40.2855 0
        CHANNELS 3 Zrotation Xrotation Yrotation
        JOINT LeftToeBase
        {
          OFFSET 0 -5.6122 11.7359
          CHANNELS 3 Zrotation Xrotation Yrotation
          End Site
          {
            OFFSET 0 0 7.8731
          }
        }
      }
    }
  }
}
MOTION
Frames:	4
Frame Time:	0.0333333
-52.6843 18.258 20.6033 -42.0002 -0.000282455 96.995 -0.564672 8.48884 -0.286749 -1.10436 16.98 -0.496107 -1.10436 16.98 -0.496115 -16.7601 -43.8497 13.2147 5.35812e-006 9.01981 -1.5335e-006 -8.42849 -4.96777 29.387 -101.008 7.00063 -58.9035 -42.8896 14.8876 -77.1732 -14.7905 -43.4771 11.3221 -1.59028e-015 3.18055e-015 1.59028e-015 -1.98785e-015 6.36111e-015 3.18055e-015 -2.78299e-015 3.18055e-015 1.59028e-015 -1.59028e-015 3.18055e-015 1.59028e-015 -0.0146112 -9.18431e-005 1.1257e-006 2.38542e-015 6.36111e-015 -1.59028e-015 -1.59028e-015 3.18055e-015 1.59028e-015 -0.018749 -0.00117581 6.13017e-005 -7.06225e-031 1.27222e-014 3.18055e-015 -1.59028e-015 3.18055e-015 1.59028e-015 -0.0122627 -0.00324505 0.000675355 -7.95139e-016 0 3.18055e-015 -1.59028e-015 3.18055e-015 1.59028e-015 -1.98785e-015 6.36111e-015 3.18055e-015 -2.78299e-015 3.18055e-015 1.59028e-015 -36.9042 -1.70543 4.52893 -2.32332 -20.9043 75.5572 125.035 -54.1194 129.174 -25.0102 6.46952 -4.79393 -1.59028e-015 0 3.97569e-015 -1.59486e-006 1.39596e-006 -2.90638e-006 -2.64834e-031 -3.18055e-015 -4.77083e-015 -1.59028e-015 0 3.97569e-015 0.014999 -8.98662e-005 -5.05423e-006 8.8893e-007 -1.4735e-006 -5.42583e-007 -1.59028e-015 0 3.97569e-015 0.018989 -0.001188 -5.93403e-005 5.29669e-031 6.36111e-015 -4.77083e-015 -1.59028e-015 0 3.97569e-015 0.0122684 -0.00324874 -0.000678159 1.59028e-015 6.36111e-015 -0 -1.59028e-015 0 3.97569e-015 -1.59486e-006 1.39596e-006 -2.90638e-006 -2.64834e-031 -3.18055e-015 -4.77083e-015 -36.6646 -86.8777 -44.6942 -174.188 39.6317 171.421 9.87811 56.5437 -16.2007 2.33416e-006 1.72138e-007 -5.93142e-007 11.9992 -82.6053 23.8773 174.491 40.8557 -171.902 14.8277 53.2436 8.29457 -3.10562e-006 3.86576e-006 9.36786e-007 
-52.6843 18.258 20.6033 -42.0002 -0.000282455 96.995 -0.563466 8.41802 -0.282827 -1.10255 16.8384 -0.489025 -1.10255 16.8384 -0.489025 -16.602 -43.2955 13.4439 -1.14323e-006 9.37542 2.96946e-006 -8.36794 -4.91477 29.0957 -101.008 7.00065 -58.9035 -42.7787 14.3747 -76.8568 -15.1382 -43.2407 11.1986 2.38542e-015 -3.18055e-015 -1.59028e-015 -3.19398e-008 -1.77334e-006 -6.37322e-007 3.18055e-015 1.27222e-014 3.18055e-015 2.38542e-015 -3.18055e-015 -1.59028e-015 -0.0146156 -9.14706e-005 3.62868e-007 -8.82781e-032 3.18055e-015 1.59028e-015 2.38542e-015 -3.18055e-015 -1.59028e-015 -0.0187563 -0.00117581 5.9577e-005 1.59028e-015 3.18055e-015 -0 2.38542e-015 -3.18055e-015 -1.59028e-015 -0.0122698 -0.00324909 0.000674019 -3.97569e-016 6.36111e-015 -0 2.38542e-015 -3.18055e-015 -1.59028e-015 -3.19398e-008 -1.77334e-006 -6.37322e-007 3.18055e-015 1.27222e-014 3.18055e-015 -36.5351 -1.67305 4.184 -2.2713 -20.7661 75.5815 124.195 -53.3521 128.058 -25.3659 6.46952 -4.79388 -4.77083e-015 3.18055e-015 -7.95139e-016 3.53113e-031 6.36111e-015 -3.18055e-015 0 0 -1.59028e-015 -4.77083e-015 3.18055e-015 -7.95139e-016 0.015006 -9.31693e-005 -1.50414e-006 -0 0 1.59028e-015 -4.77083e-015 3.18055e-015 -7.95139e-016 0.0189996 -0.00119494 -6.08798e-005 -4.77083e-015 6.36111e-015 3.97569e-015 -4.77083e-015 3.18055e-015 -7.95139e-016 0.0122764 -0.00324693 -0.000676436 -1.59028e-015 6.36111e-015 1.59028e-015 -4.77083e-015 3.18055e-015 -7.95139e-016 3.53113e-031 6.36111e-015 -3.18055e-015 0 0 -1.59028e-015 -36.6689 -86.878 -44.6985 -174.188 39.6313 171.421 9.87818 56.5438 -16.2008 7.1447e-009 3.84127e-008 7.29803e-007 11.9992 -82.6053 23.8773 174.491 40.8557 -171.902 14.8277 53.2436 8.29457 -3.10562e-006 3.86576e-006 9.36786e-007 
-52.6843 18.258 20.6033 -42.0002 -0.000282455 96.995 -0.56219 8.34721 -0.279003 -1.10069 16.6967 -0.482011 -1.10069 16.6967 -0.481988 -16.4482 -42.7411 13.6691 -4.94885e-006 9.73105 1.87358e-006 -8.30714 -4.86211 28.8044 -101.008 7.00063 -58.9035 -42.6651 13.8622 -76.54 -15.4839 -43.0037 11.0775 -1.15981e-007 2.12493e-007 3.18627e-007 -1.14838e-007 9.94505e-008 8.36872e-007 -1.14838e-007 9.94506e-008 8.36872e-007 -1.15981e-007 2.12493e-007 3.18627e-007 -0.0146236 -8.90768e-005 1.20818e-006 -1.14828e-007 9.93438e-008 8.36885e-007 -1.15981e-007 2.12493e-007 3.18627e-007 -0.0187471 -0.00117463 6.23617e-005 -1.14817e-007 9.93145e-008 8.36889e-007 -1.15981e-007 2.12493e-007 3.18627e-007 -0.0122772 -0.00324828 0.000676257 -1.14805e-007 9.93637e-008 8.36885e-007 -1.15981e-007 2.12493e-007 3.18627e-007 -1.14838e-007 9.94505e-008 8.36872e-007 -1.14838e-007 9.94506e-008 8.36872e-007 -36.1659 -1.64293 3.83885 -2.21939 -20.628 75.6056 123.394 -52.5751 126.981 -25.7216 6.4695 -4.79383 -1.59028e-015 3.18055e-015 -6.36111e-015 -1.60185e-006 1.39053e-006 -2.90643e-006 -1.59028e-015 -3.18055e-015 -7.95139e-016 -1.59028e-015 3.18055e-015 -6.36111e-015 0.0149981 -8.73359e-005 6.28814e-006 1.32417e-030 9.54166e-015 -7.95139e-015 -1.59028e-015 3.18055e-015 -6.36111e-015 0.018986 -0.00119253 -6.5294e-005 3.18055e-015 0 2.38542e-015 -1.59028e-015 3.18055e-015 -6.36111e-015 0.0122861 -0.00325442 -0.000675775 1.59028e-015 -3.18055e-015 3.97569e-015 -1.59028e-015 3.18055e-015 -6.36111e-015 -1.60185e-006 1.39053e-006 -2.90643e-006 -1.59028e-015 -3.18055e-015 -7.95139e-016 -36.6689 -86.878 -44.6985 -174.188 39.6313 171.421 9.87818 56.5438 -16.2008 7.1447e-009 3.84127e-008 7.29803e-007 11.9992 -82.6053 23.8773 174.491 40.8557 -171.902 14.8277 53.2436 8.29457 -3.10562e-006 3.86576e-006 9.36786e-007 
-52.6843 18.258 20.6033 -42.0002 -0.000282455 96.995 -0.560987 8.2764 -0.275169 -1.09881 16.555 -0.474992 -1.09881 16.5551 -0.474986 -16.2989 -42.1859 13.8902 -1.50283e-007 10.0867 -9.01787e-007 -8.24607 -4.80975 28.513 -101.008 7.00062 -58.9035 -42.5489 13.3503 -76.2228 -15.8276 -42.7662 10.9588 -5.96354e-015 9.54166e-015 -6.36111e-015 -1.49283e-007 -1.67388e-006 1.98331e-007 1.14273e-007 -9.91656e-008 -8.36938e-007 -5.96354e-015 9.54166e-015 -6.36111e-015 -0.0146146 -9.33831e-005 -9.93445e-007 1.14263e-007 -9.9059e-008 -8.36951e-007 -5.96354e-015 9.54166e-015 -6.36111e-015 -0.018758 -0.00117656 5.86974e-005 1.14252e-007 -9.90295e-008 -8.36956e-007 -5.96354e-015 9.54166e-015 -6.36111e-015 -0.0122743 -0.00324989 0.000676134 1.1424e-007 -9.90788e-008 -8.36952e-007 -5.96354e-015 9.54166e-015 -6.36111e-015 -1.49283e-007 -1.67388e-006 1.98331e-007 1.14273e-007 -9.91656e-008 -8.36938e-007 -35.7964 -1.615 3.49351 -2.16761 -20.4899 75.6295 122.63 -51.7893 125.94 -26.0773 6.46954 -4.79383 1.59028e-015 0 4.77083e-015 1.76086e-006 -5.92703e-006 -1.53927e-006 1.54764e-006 -4.54548e-006 3.54008e-006 1.59028e-015 0 4.77083e-015 0.0150115 -9.56106e-005 4.40193e-006 4.19947e-006 -6.42941e-006 2.50436e-006 1.59028e-015 0 4.77083e-015 0.0189935 -0.00119081 -5.41727e-005 4.19996e-006 -6.42945e-006 2.50453e-006 1.59028e-015 0 4.77083e-015 0.0122868 -0.00325814 -0.000672177 4.19926e-006 -6.42981e-006 2.50401e-006 1.59028e-015 0 4.77083e-015 1.76086e-006 -5.92703e-006 -1.53927e-006 1.54764e-006 -4.54548e-006 3.54008e-006 -36.6689 -86.878 -44.6985 -174.188 39.6313 171.421 9.87818 56.5438 -16.2008 7.1447e-009 3.84127e-008 7.29803e-007 11.9992 -82.6053 23.8773 174.491 40.8557 -171.902 14.8277 53.2436 8.29457 -3.10562e-006 3.86576e-006 9.36786e-007 
